<svg width="40" height="41" viewBox="0 0 40 41" fill="none" xmlns="http://www.w3.org/2000/svg">
<g clip-path="url(#clip0_55_1421)">
<path opacity="0.936" fill-rule="evenodd" clip-rule="evenodd" d="M15.1953 0.569336C16.1068 0.569336 17.0182 0.569336 17.9297 0.569336C22.2563 0.968373 25.9152 2.7392 28.9062 5.88184C29.2484 6.24991 29.5609 6.64054 29.8438 7.05371C30.2213 6.67611 30.599 6.2985 30.9766 5.9209C30.3191 4.5201 30.5796 3.32219 31.7578 2.32715C33.0995 1.61925 34.3104 1.78852 35.3906 2.83496C35.5909 3.14451 35.7602 3.47002 35.8984 3.81152C37.2523 3.85058 38.6065 3.8636 39.9609 3.85059C39.9609 4.31934 39.9609 4.78809 39.9609 5.25684C38.6058 5.23084 37.2516 5.25688 35.8984 5.33496C35.2947 6.88691 34.1749 7.49888 32.5391 7.1709C32.3284 7.11115 32.1331 7.02 31.9531 6.89746C31.5234 7.32715 31.0938 7.75684 30.6641 8.18652C33.7509 13.2771 34.1546 18.5765 31.875 24.085C31.5266 24.8209 31.1491 25.537 30.7422 26.2334C33.4604 29.0297 36.2078 31.8032 38.9844 34.5537C39.4351 35.0909 39.7605 35.6898 39.9609 36.3506C39.9609 36.8454 39.9609 37.3402 39.9609 37.835C39.5359 39.2757 38.5984 40.1871 37.1484 40.5693C36.6797 40.5693 36.2109 40.5693 35.7422 40.5693C35.0814 40.3689 34.4825 40.0435 33.9453 39.5928C31.1719 36.8193 28.3984 34.0459 25.625 31.2725C21.4627 33.8686 16.9966 34.5588 12.2266 33.3428C5.94057 31.4057 1.96922 27.252 0.3125 20.8818C0.181548 20.1436 0.0643604 19.4144 -0.0390625 18.6943C-0.0390625 17.7308 -0.0390625 16.7672 -0.0390625 15.8037C0.609332 10.0649 3.39579 5.70289 8.32031 2.71777C10.477 1.53424 12.7688 0.818095 15.1953 0.569336ZM15.8203 1.89746C20.8108 1.80912 24.9644 3.606 28.2812 7.28809C31.985 11.9848 32.8444 17.1671 30.8594 22.835C28.7597 27.7727 25.1009 30.8846 19.8828 32.1709C13.7448 33.2582 8.65359 31.4483 4.60938 26.7412C1.2057 22.1254 0.450488 17.0993 2.34375 11.6631C4.92902 5.78025 9.42117 2.52505 15.8203 1.89746ZM32.9297 3.30371C34.303 3.30861 34.7848 3.95966 34.375 5.25684C33.5662 6.11648 32.8109 6.06441 32.1094 5.10059C31.877 4.26362 32.1505 3.66466 32.9297 3.30371ZM29.8047 27.4443C30.428 28.0156 31.027 28.6146 31.6016 29.2412C30.638 30.2568 29.6484 31.2464 28.6328 32.21C28.022 31.6382 27.423 31.0522 26.8359 30.4521C27.9475 29.562 28.937 28.5594 29.8047 27.4443ZM32.6172 30.2568C34.5438 32.1183 36.4318 34.0193 38.2812 35.96C38.8755 37.1996 38.602 38.2022 37.4609 38.9678C36.7129 39.3126 35.9837 39.2606 35.2734 38.8115C33.3746 36.9908 31.4996 35.1418 29.6484 33.2646C30.6538 32.2723 31.6434 31.2697 32.6172 30.2568Z" fill="white"/>
<path opacity="0.94" fill-rule="evenodd" clip-rule="evenodd" d="M15.4298 3.22554C21.3491 3.01379 25.8413 5.40963 28.9064 10.413C31.25 14.969 31.25 19.5262 28.9064 24.0849C25.6978 29.2896 21.0233 31.6463 14.8829 31.1552C9.14557 30.2216 5.27838 27.0315 3.28135 21.5849C1.65569 15.5977 3.12705 10.5326 7.69541 6.38961C9.96299 4.57898 12.5411 3.52429 15.4298 3.22554ZM15.5079 4.63179C14.7846 4.74832 14.0555 4.89154 13.3204 5.06148C8.54096 6.54638 5.54621 9.71046 4.33604 14.5537C5.11773 14.5666 5.89898 14.5537 6.67979 14.5146C7.3543 12.8752 8.55221 12.2763 10.2735 12.7177C11.4033 13.1702 11.9763 14.0034 11.9923 15.2177C11.9634 15.7183 11.8722 16.2001 11.7189 16.663C12.6694 17.6136 13.6199 18.5641 14.5704 19.5146C15.0183 19.3505 15.4871 19.2334 15.9767 19.163C16.4331 19.2067 16.8628 19.337 17.2657 19.5537C18.7218 18.1757 20.1542 16.7695 21.5626 15.3349C21.5122 15.0486 21.4341 14.7622 21.3282 14.4755C21.1909 13.7214 21.321 13.0183 21.7189 12.3662C22.7143 11.1879 23.9123 10.9274 25.3126 11.5849C25.8606 11.0499 26.3945 10.503 26.9142 9.94429C24.0565 6.19835 20.2544 4.42751 15.5079 4.63179ZM27.6173 11.1943C27.1904 11.6603 26.7478 12.116 26.2892 12.5615C26.7595 13.3845 26.7985 14.2309 26.4064 15.1005C25.7409 16.26 24.7383 16.7417 23.3985 16.5459C23.1119 16.44 22.8255 16.3619 22.5392 16.3115C21.146 17.7047 19.7527 19.098 18.3595 20.4912C18.5137 20.9427 18.6309 21.4115 18.711 21.8974C18.6496 22.2096 18.5846 22.5221 18.5157 22.8349C17.6686 24.4887 16.3796 24.9704 14.6485 24.2802C13.2931 23.3387 12.9546 22.1148 13.6329 20.6084C12.6433 19.6187 11.6538 18.6292 10.6642 17.6396C10.4114 17.7122 10.151 17.7903 9.88291 17.874C9.38276 17.9379 8.88799 17.9118 8.39854 17.7959C7.51725 17.4761 6.97037 16.8641 6.75791 15.9599C5.8725 15.9599 4.98708 15.9599 4.10166 15.9599C3.79922 21.2799 5.88255 25.3555 10.3517 28.1865C14.5456 30.4184 18.7383 30.4184 22.9298 28.1865C27.2456 25.4807 29.3419 21.5615 29.2189 16.4287C29.1061 14.5431 28.5723 12.7984 27.6173 11.1943ZM23.711 12.6005C22.7711 12.9972 22.4977 13.6742 22.8907 14.6318C23.6534 15.383 24.3825 15.3569 25.0782 14.5537C25.4373 13.3469 24.9816 12.6959 23.711 12.6005ZM9.10166 13.9287C8.92659 14.0162 8.74424 14.1073 8.55479 14.2021C7.79618 14.9865 7.84823 15.7156 8.71104 16.3896C9.45885 16.6612 10.0448 16.4659 10.4689 15.8037C10.7244 14.6654 10.2687 14.0404 9.10166 13.9287ZM15.586 20.6474C15.3849 20.7553 15.1896 20.8855 15.0001 21.038C14.542 21.6755 14.581 22.2874 15.1173 22.874C15.8862 23.3713 16.5503 23.2541 17.1095 22.5224C17.3981 21.2507 16.8903 20.6257 15.586 20.6474Z" fill="white"/>
</g>
<defs>
<clipPath id="clip0_55_1421">
<rect width="40" height="40" fill="white" transform="translate(0 0.608398)"/>
</clipPath>
</defs>
</svg>
