<svg width="241" height="201" viewBox="0 0 241 201" fill="none" xmlns="http://www.w3.org/2000/svg">
<path d="M227.346 199.567C227.875 200.204 228.821 200.292 229.458 199.763L239.845 191.14C240.483 190.61 240.571 189.665 240.041 189.027C239.512 188.39 238.567 188.302 237.929 188.831L228.696 196.496L221.031 187.263C220.502 186.626 219.556 186.538 218.919 187.067C218.282 187.596 218.194 188.542 218.723 189.179L227.346 199.567ZM0.927396 3.10664C15.1416 3.79545 29.6762 4.02241 44.1525 4.31321C58.6397 4.60423 73.0751 4.95925 87.1419 5.90197C115.294 7.78864 141.831 12.0233 164.165 22.7115C186.442 33.3726 204.589 50.4781 215.963 78.255C227.36 106.087 231.994 144.723 227.006 198.47L229.994 198.747C235.006 144.743 230.39 105.568 218.74 77.1181C207.067 48.6138 188.37 30.9693 165.46 20.0054C142.607 9.06866 115.613 4.80328 87.3425 2.90869C73.1983 1.96078 58.7001 1.60484 44.2127 1.31382C29.7144 1.02257 15.2334 0.796378 1.0726 0.110157L0.927396 3.10664Z" fill="#4D4880"/>
</svg>
