<svg width="292" height="207" viewBox="0 0 292 207" fill="none" xmlns="http://www.w3.org/2000/svg">
<path d="M15.787 205.928C16.5158 206.322 17.4259 206.05 17.8197 205.322L24.2377 193.445C24.6315 192.716 24.3599 191.806 23.6311 191.412C22.9023 191.018 21.9922 191.29 21.5984 192.018L15.8935 202.576L5.33631 196.871C4.60749 196.477 3.69739 196.749 3.30355 197.477C2.90972 198.206 3.18128 199.116 3.9101 199.51L15.787 205.928ZM291.212 9.62376C217.634 -0.887513 161.255 -1.81102 118.648 4.70389C76.0386 11.2193 47.0937 25.1931 28.5416 44.5712C-8.59336 83.3594 -3.4383 143.034 15.0627 205.037L17.9375 204.18C-0.56154 142.183 -5.15643 84.1075 30.7086 46.6458C48.6565 27.8989 76.8991 14.1226 119.102 7.66942C161.308 1.21566 217.366 2.10474 290.788 12.5936L291.212 9.62376Z" fill="#4D4880"/>
</svg>
