<svg width="40" height="40" viewBox="0 0 40 40" fill="none" xmlns="http://www.w3.org/2000/svg">
<g clip-path="url(#clip0_390_1421)">
<path opacity="0.994" fill-rule="evenodd" clip-rule="evenodd" d="M1.67969 -0.0390625C11.5755 -0.0390625 21.4713 -0.0390625 31.3672 -0.0390625C32.2252 0.233154 32.7852 0.80607 33.0469 1.67969C33.099 4.83073 33.099 7.9818 33.0469 11.1328C32.7541 11.6048 32.3504 11.722 31.8359 11.4844C31.7149 11.3895 31.6238 11.2723 31.5625 11.1328C31.5365 8.19008 31.5104 5.2474 31.4844 2.30469C31.4364 2.02225 31.2932 1.80089 31.0547 1.64062C26.2144 1.55005 21.3706 1.51098 16.5234 1.52344C11.6763 1.51098 6.83252 1.55005 1.99219 1.64062C1.75366 1.80089 1.61043 2.02225 1.5625 2.30469C1.51041 14.0755 1.51041 25.8463 1.5625 37.6172C1.61043 37.8996 1.75366 38.121 1.99219 38.2812C11.5722 38.4109 21.1555 38.437 30.7422 38.3594C31.1719 38.2943 31.4193 38.0469 31.4844 37.6172C31.5104 35.5859 31.5365 33.5547 31.5625 31.5234C31.8553 31.0514 32.259 30.9342 32.7734 31.1719C32.8945 31.2667 32.9855 31.3839 33.0469 31.5234C33.099 33.763 33.099 36.0026 33.0469 38.2422C32.7852 39.1158 32.2252 39.6888 31.3672 39.9609C21.4713 39.9609 11.5755 39.9609 1.67969 39.9609C1.32305 39.8083 0.984508 39.613 0.664062 39.375C0.358197 39.0357 0.123822 38.658 -0.0390625 38.2422C-0.0390625 26.0547 -0.0390625 13.8672 -0.0390625 1.67969C0.113586 1.32305 0.308898 0.984508 0.546875 0.664062C0.886211 0.358197 1.26381 0.123822 1.67969 -0.0390625Z" fill="white"/>
<path opacity="0.948" fill-rule="evenodd" clip-rule="evenodd" d="M15.5073 4.17966C19.072 3.91044 21.637 5.36878 23.2027 8.55466C24.3393 11.8599 23.6231 14.6854 21.0542 17.0312C19.0491 18.5158 16.8356 18.9324 14.4136 18.2812C11.5816 17.2983 9.90196 15.3322 9.37454 12.3828C9.06751 9.20802 10.2524 6.77311 12.9292 5.0781C13.7516 4.6435 14.611 4.34403 15.5073 4.17966ZM15.6636 5.82028C18.7265 5.61695 20.7968 6.94507 21.8745 9.80466C22.358 11.5316 22.0845 13.1202 21.0542 14.5703C20.706 14.1829 20.3414 13.8053 19.9605 13.4375C19.5795 13.2084 19.2149 12.961 18.8667 12.6953C19.2491 12.1163 19.4053 11.4783 19.3355 10.7812C19.3189 8.91169 18.3814 7.88302 16.523 7.69528C14.6645 7.88302 13.727 8.91169 13.7105 10.7812C13.6406 11.4783 13.7969 12.1163 14.1792 12.6953C13.3471 13.1492 12.644 13.7611 12.0698 14.5312C12.0438 14.5443 12.0177 14.5572 11.9917 14.5703C10.8952 12.9432 10.6739 11.1984 11.3277 9.33591C12.1724 7.41123 13.6177 6.23935 15.6636 5.82028ZM16.2886 9.33591C17.2764 9.33419 17.7713 9.82896 17.773 10.8203C17.632 12.0622 16.9809 12.4658 15.8198 12.0312C15.1589 11.2934 15.1068 10.5122 15.6636 9.68747C15.8666 9.54724 16.075 9.43005 16.2886 9.33591ZM15.8198 13.9453C17.348 13.7731 18.611 14.2679 19.6089 15.4297C19.7457 15.5634 19.7978 15.7197 19.7652 15.8984C18.1214 16.9931 16.3636 17.2145 14.4917 16.5625C14.0202 16.3793 13.6035 16.119 13.2417 15.7812C13.8545 14.8161 14.7138 14.2041 15.8198 13.9453Z" fill="white"/>
<path opacity="0.946" fill-rule="evenodd" clip-rule="evenodd" d="M39.9609 12.3047C39.9609 12.7474 39.9609 13.1901 39.9609 13.6328C39.8448 13.9974 39.7016 14.3619 39.5312 14.7266C36.25 20.4037 32.9688 26.0807 29.6875 31.7578C27.9384 33.1206 26.1545 34.4357 24.3359 35.7031C23.6387 35.889 23.248 35.6286 23.1641 34.9219C23.392 32.714 23.6655 30.5135 23.9844 28.3203C27.2916 22.5912 30.599 16.862 33.9062 11.1328C35.1014 9.65931 36.5728 9.30775 38.3203 10.0781C39.1636 10.6074 39.7105 11.3496 39.9609 12.3047ZM36.4453 11.2891C37.837 11.3656 38.4491 12.0948 38.2812 13.4766C38 14.0435 37.6875 14.5904 37.3438 15.1172C36.3997 14.5474 35.4491 13.9876 34.4922 13.4375C34.8051 12.7852 35.1957 12.1863 35.6641 11.6406C35.923 11.4977 36.1835 11.3805 36.4453 11.2891ZM33.6328 14.8828C34.6357 15.397 35.5992 15.9699 36.5234 16.6016C33.9219 21.1169 31.3047 25.6221 28.6719 30.1172C27.7278 29.5474 26.7773 28.9876 25.8203 28.4375C28.4352 23.9235 31.0395 19.4053 33.6328 14.8828ZM25.3516 30.1172C26.0526 30.5199 26.7557 30.9236 27.4609 31.3281C26.6878 31.9685 25.8935 32.5805 25.0781 33.1641C25.1318 32.147 25.2229 31.1314 25.3516 30.1172Z" fill="white"/>
<path opacity="0.889" fill-rule="evenodd" clip-rule="evenodd" d="M5.97668 21.0546C6.98845 20.9951 7.31397 21.4379 6.95324 22.3827C6.66563 22.6062 6.34011 22.6712 5.97668 22.578C5.54505 22.35 5.40183 21.9984 5.54699 21.5233C5.65322 21.3262 5.79644 21.17 5.97668 21.0546Z" fill="white"/>
<path opacity="0.988" fill-rule="evenodd" clip-rule="evenodd" d="M9.25754 21.0547C13.216 21.0417 17.1743 21.0547 21.1325 21.0938C21.5056 21.3793 21.6228 21.7569 21.4841 22.2266C21.3929 22.3698 21.2757 22.487 21.1325 22.5781C17.1742 22.6302 13.2159 22.6302 9.25754 22.5781C8.88449 22.2926 8.76731 21.915 8.90598 21.4453C9.0127 21.2999 9.12988 21.1697 9.25754 21.0547Z" fill="white"/>
<path opacity="0.889" fill-rule="evenodd" clip-rule="evenodd" d="M5.97668 25.4296C6.98845 25.3701 7.31397 25.8129 6.95324 26.7577C6.66563 26.9812 6.34011 27.0462 5.97668 26.953C5.54505 26.725 5.40183 26.3734 5.54699 25.8983C5.65322 25.7012 5.79644 25.545 5.97668 25.4296Z" fill="white"/>
<path opacity="0.988" fill-rule="evenodd" clip-rule="evenodd" d="M9.25754 25.4297C13.216 25.4167 17.1743 25.4297 21.1325 25.4688C21.5056 25.7543 21.6228 26.1319 21.4841 26.6016C21.3929 26.7448 21.2757 26.862 21.1325 26.9531C17.1742 27.0052 13.2159 27.0052 9.25754 26.9531C8.88449 26.6676 8.76731 26.29 8.90598 25.8203C9.0127 25.6749 9.12988 25.5447 9.25754 25.4297Z" fill="white"/>
<path opacity="0.889" fill-rule="evenodd" clip-rule="evenodd" d="M5.97668 29.8046C6.98845 29.7451 7.31397 30.1879 6.95324 31.1327C6.66563 31.3562 6.34011 31.4212 5.97668 31.328C5.54505 31.1 5.40183 30.7484 5.54699 30.2733C5.65322 30.0762 5.79644 29.92 5.97668 29.8046Z" fill="white"/>
<path opacity="0.988" fill-rule="evenodd" clip-rule="evenodd" d="M9.25754 29.8047C13.216 29.7917 17.1743 29.8047 21.1325 29.8438C21.5056 30.1293 21.6228 30.5069 21.4841 30.9766C21.3929 31.1198 21.2757 31.237 21.1325 31.3281C17.1742 31.3802 13.2159 31.3802 9.25754 31.3281C8.88449 31.0426 8.76731 30.665 8.90598 30.1953C9.0127 30.0499 9.12988 29.9197 9.25754 29.8047Z" fill="white"/>
<path opacity="0.973" fill-rule="evenodd" clip-rule="evenodd" d="M16.1325 34.1797C17.7994 34.1667 19.4661 34.1797 21.1325 34.2188C21.5056 34.5043 21.6228 34.8819 21.4841 35.3516C21.3929 35.4948 21.2757 35.612 21.1325 35.7031C19.4659 35.7552 17.7992 35.7552 16.1325 35.7031C15.7595 35.4176 15.6423 35.04 15.781 34.5703C15.8877 34.4249 16.0049 34.2947 16.1325 34.1797Z" fill="white"/>
</g>
<defs>
<clipPath id="clip0_390_1421">
<rect width="40" height="40" fill="white"/>
</clipPath>
</defs>
</svg>
