<svg width="40" height="41" viewBox="0 0 40 41" fill="none" xmlns="http://www.w3.org/2000/svg">
<g clip-path="url(#clip0_55_1444)">
<path opacity="0.954" fill-rule="evenodd" clip-rule="evenodd" d="M39.9609 28.3037C39.9609 29.1371 39.9609 29.9704 39.9609 30.8037C39.6052 31.7122 38.928 32.155 37.9297 32.1318C37.769 32.5835 37.5867 33.0261 37.3828 33.46C38.1938 34.2713 38.285 35.1567 37.6562 36.1162C37.1395 36.7116 36.5536 37.2194 35.8984 37.6397C35.1084 37.8718 34.4313 37.6896 33.8672 37.0928C33.7891 37.0407 33.7109 37.0407 33.6328 37.0928C33.2519 37.2849 32.8613 37.4541 32.4609 37.6006C32.3431 39.2017 31.4837 39.8787 29.8828 39.6318C28.2893 39.8718 27.443 39.1947 27.3438 37.6006C26.8995 37.4567 26.4698 37.2744 26.0547 37.0537C25.3197 37.7714 24.4863 37.9146 23.5547 37.4834C23.0469 36.9756 22.5391 36.4678 22.0312 35.96C21.5794 35.0311 21.6966 34.1847 22.3828 33.4209C22.1998 32.977 22.0175 32.5343 21.8359 32.0928C19.4595 32.0916 17.0897 32.0395 14.7266 31.9365C14.2416 31.3145 14.3457 30.8197 15.0391 30.4522C16.6274 30.4131 18.2159 30.4 19.8047 30.4131C19.7917 29.7615 19.8047 29.1105 19.8438 28.46C20.1472 27.4934 20.8113 27.0116 21.8359 27.0147C22.0027 26.5929 22.185 26.1762 22.3828 25.7647C21.6287 24.9757 21.5116 24.1033 22.0312 23.1475C22.513 22.6657 22.9948 22.1839 23.4766 21.7022C24.4291 21.2312 25.2754 21.3745 26.0156 22.1318C26.4395 21.8808 26.8822 21.6725 27.3438 21.5068C27.4625 19.9534 28.3089 19.2763 29.8828 19.4756C31.4423 19.2783 32.2887 19.9554 32.4219 21.5068C32.8942 21.725 33.376 21.8942 33.8672 22.0147C34.3079 21.5335 34.8548 21.3382 35.5078 21.4287C35.5078 18.7985 35.5078 16.1683 35.5078 13.5381C24.2057 13.5381 12.9037 13.5381 1.60156 13.5381C1.58854 18.4861 1.60156 23.434 1.64062 28.3818C1.81395 29.3427 2.3478 30.0068 3.24219 30.374C4.98698 30.4 6.73177 30.4261 8.47656 30.4522C9.08781 30.6991 9.25711 31.1288 8.98438 31.7412C8.88953 31.8622 8.77234 31.9533 8.63281 32.0147C6.73177 32.0668 4.83073 32.0668 2.92969 32.0147C1.61075 31.6594 0.712313 30.8391 0.234375 29.5537C0.153609 29.2543 0.0624637 28.9679 -0.0390625 28.6943C-0.0390625 20.7516 -0.0390625 12.8089 -0.0390625 4.86621C0.221298 3.62928 0.872336 2.65271 1.91406 1.93653C2.24123 1.77541 2.57977 1.6452 2.92969 1.5459C13.3203 1.49381 23.7109 1.49381 34.1016 1.5459C35.8842 2.09988 36.8869 3.31082 37.1094 5.17871C37.1354 10.96 37.1615 16.7412 37.1875 22.5225C38.3022 23.53 38.3673 24.5977 37.3828 25.7256C37.5955 26.1293 37.7778 26.546 37.9297 26.9756C38.9062 26.9931 39.5833 27.4358 39.9609 28.3037ZM3.24219 3.14746C13.4505 3.13444 23.6589 3.14746 33.8672 3.18653C34.6738 3.50911 35.1816 4.09505 35.3906 4.94434C35.504 7.2592 35.543 9.57692 35.5078 11.8975C24.2057 11.8975 12.9037 11.8975 1.60156 11.8975C1.58855 9.6577 1.60156 7.41814 1.64062 5.17871C1.81865 4.2079 2.3525 3.53082 3.24219 3.14746ZM29.1016 21.1162C29.623 21.1032 30.1439 21.1162 30.6641 21.1553C30.7273 21.5785 30.7663 22.0082 30.7812 22.4443C30.8463 22.7178 31.0156 22.8871 31.2891 22.9522C32.1029 23.1278 32.8581 23.4403 33.5547 23.8897C33.8151 23.9418 34.0755 23.9418 34.3359 23.8897C34.66 23.6307 34.9725 23.3573 35.2734 23.0693C35.6759 23.4328 36.0666 23.8104 36.4453 24.2022C36.0873 24.5078 35.7877 24.8593 35.5469 25.2568C35.4948 25.4391 35.4948 25.6214 35.5469 25.8037C36.0155 26.5847 36.3541 27.418 36.5625 28.3037C36.683 28.4504 36.8262 28.5676 36.9922 28.6553C37.4284 28.6702 37.858 28.7093 38.2812 28.7725C38.3203 29.3187 38.3333 29.8656 38.3203 30.4131C37.9028 30.4001 37.4862 30.4132 37.0703 30.4522C36.7709 30.5433 36.5755 30.7386 36.4844 31.0381C36.2266 31.9291 35.9012 32.7885 35.5078 33.6162C35.509 33.7829 35.548 33.9392 35.625 34.085C35.8984 34.3584 36.1719 34.6318 36.4453 34.9053C36.1159 35.3519 35.7253 35.7295 35.2734 36.0381C34.9545 35.8369 34.668 35.5895 34.4141 35.2959C34.2683 35.2189 34.112 35.1799 33.9453 35.1787C33.0038 35.5968 32.0402 35.9744 31.0547 36.3115C30.8995 36.4146 30.8083 36.5578 30.7812 36.7412C30.7423 37.1571 30.7292 37.5737 30.7422 37.9912C30.1947 38.0042 29.6478 37.9912 29.1016 37.9522C29.0384 37.5289 28.9993 37.0993 28.9844 36.6631C28.8967 36.4972 28.7795 36.3539 28.6328 36.2334C27.7729 36.0164 26.9656 35.6778 26.2109 35.2178C25.9145 35.1524 25.628 35.1784 25.3516 35.2959C25.0781 35.5693 24.8047 35.8428 24.5312 36.1162C24.124 35.7352 23.7464 35.3315 23.3984 34.9053C23.642 34.5833 23.9155 34.2839 24.2188 34.0068C24.2458 33.8726 24.2848 33.7424 24.3359 33.6162C24.1686 33.1229 23.9472 32.6542 23.6719 32.21C23.5153 31.7404 23.3591 31.2716 23.2031 30.8037C23.0752 30.6232 22.9059 30.5061 22.6953 30.4522C22.2852 30.4371 21.8815 30.398 21.4844 30.335C21.4323 29.8141 21.4323 29.2933 21.4844 28.7725C21.9337 28.7092 22.3894 28.6701 22.8516 28.6553C22.9359 28.5806 23.027 28.5155 23.125 28.46C23.3834 27.5541 23.748 26.6947 24.2188 25.8818C24.2709 25.6475 24.2709 25.4131 24.2188 25.1787C23.9872 24.8689 23.7268 24.5824 23.4375 24.3193C23.3854 24.2412 23.3854 24.1631 23.4375 24.085C23.7772 23.7322 24.1287 23.3936 24.4922 23.0693C24.7384 23.2764 24.9727 23.4978 25.1953 23.7334C25.3898 23.8852 25.6112 23.9763 25.8594 24.0068C26.7502 23.5552 27.6747 23.1775 28.6328 22.874C28.8133 22.7461 28.9305 22.5768 28.9844 22.3662C29.0012 21.9432 29.0402 21.5265 29.1016 21.1162Z" fill="white"/>
<path opacity="0.942" fill-rule="evenodd" clip-rule="evenodd" d="M6.67969 4.8661C8.84039 4.74843 9.92109 5.76406 9.92188 7.91297C9.50273 9.60696 8.42203 10.3491 6.67969 10.1395C5.37567 9.76086 4.67255 8.88852 4.57031 7.52235C4.70192 6.1683 5.40505 5.28288 6.67969 4.8661ZM6.99219 6.50672C6.09773 7.0494 6.01961 7.68742 6.75781 8.42078C7.45559 8.68321 7.95039 8.47492 8.24219 7.79578C8.29891 6.92774 7.88219 6.49806 6.99219 6.50672Z" fill="white"/>
<path opacity="0.945" fill-rule="evenodd" clip-rule="evenodd" d="M13.5547 4.86615C15.4647 4.74504 16.5584 5.63047 16.8359 7.5224C16.6656 9.17717 15.7541 10.0626 14.1016 10.1787C12.2259 9.98233 11.3534 8.94061 11.4844 7.05365C11.7391 5.90071 12.4293 5.17154 13.5547 4.86615ZM13.8672 6.50678C13.0845 6.89997 12.9152 7.47288 13.3594 8.22553C13.9506 8.67576 14.4975 8.62373 15 8.06928C15.2907 7.06189 14.9131 6.54106 13.8672 6.50678Z" fill="white"/>
<path opacity="0.954" fill-rule="evenodd" clip-rule="evenodd" d="M22.8516 4.86621C25.5601 4.85319 28.2684 4.86621 30.9766 4.90527C32.8115 5.56726 33.4234 6.83028 32.8126 8.69434C32.4082 9.43699 31.7962 9.91871 30.9766 10.1396C28.1344 10.2157 25.2958 10.1897 22.461 10.0615C20.7665 9.18363 20.3107 7.86856 21.0938 6.11621C21.5302 5.47605 22.1161 5.05938 22.8516 4.86621ZM23.1641 6.50684C22.943 6.58577 22.7477 6.71597 22.5782 6.89746C22.1995 7.60865 22.3688 8.1425 23.086 8.49902C25.612 8.55113 28.1381 8.55113 30.6641 8.49902C30.959 8.38636 31.1804 8.19105 31.3282 7.91309C31.5134 7.25502 31.2921 6.7993 30.6641 6.5459C28.1643 6.50684 25.6643 6.49382 23.1641 6.50684Z" fill="white"/>
<path opacity="0.937" fill-rule="evenodd" clip-rule="evenodd" d="M12.3047 17.9132C13.1618 17.7938 13.5394 18.1584 13.4376 19.0069C12.9151 21.253 12.3682 23.4927 11.7969 25.7257C11.3282 26.2466 10.8594 26.2466 10.3907 25.7257C10.2748 25.4755 10.2487 25.2151 10.3126 24.9444C10.8334 22.7569 11.3542 20.5694 11.8751 18.3819C11.9813 18.1848 12.1245 18.0286 12.3047 17.9132Z" fill="white"/>
<path opacity="0.932" fill-rule="evenodd" clip-rule="evenodd" d="M7.30464 18.46C8.03144 18.4705 8.35698 18.835 8.2812 19.5537C7.61607 20.3749 6.95201 21.1952 6.28902 22.0146C6.87095 22.7271 7.48293 23.4171 8.12495 24.085C8.51019 24.8246 8.30183 25.2934 7.49995 25.4912C7.28653 25.4822 7.09122 25.4171 6.91402 25.2959C6.0645 24.3684 5.24419 23.4179 4.45308 22.4443C4.36964 22.0328 4.42173 21.6421 4.60933 21.2725C5.18531 20.6706 5.73219 20.0456 6.24995 19.3975C6.57205 19.0354 6.92361 18.7229 7.30464 18.46Z" fill="white"/>
<path opacity="0.932" fill-rule="evenodd" clip-rule="evenodd" d="M16.0547 18.4599C16.2711 18.4537 16.4794 18.4928 16.6797 18.577C17.5288 19.452 18.3491 20.3505 19.1406 21.2724C19.4716 21.9468 19.3674 22.5458 18.8281 23.0692C18.135 23.7881 17.471 24.5303 16.8359 25.2958C15.9137 25.6881 15.4579 25.3887 15.4687 24.3974C16.118 23.5787 16.7821 22.7714 17.4609 21.9755C16.8115 21.1828 16.1475 20.4015 15.4687 19.6317C15.335 19.0656 15.5304 18.675 16.0547 18.4599Z" fill="white"/>
<path opacity="0.945" fill-rule="evenodd" clip-rule="evenodd" d="M29.3359 24.7099C31.657 24.6265 33.3367 25.6161 34.375 27.6787C35.2254 30.2577 34.5354 32.3019 32.3047 33.8115C29.6152 34.9981 27.4147 34.4121 25.7031 32.0537C24.6993 30.08 24.8555 28.205 26.1719 26.4287C27.037 25.495 28.0917 24.9221 29.3359 24.7099ZM29.5703 26.3506C28.2876 26.6044 27.3892 27.3336 26.875 28.5381C26.4304 30.3963 27.0684 31.7374 28.789 32.5615C30.9869 33.0838 32.4062 32.2635 33.0469 30.1006C33.0938 27.7385 31.935 26.4885 29.5703 26.3506Z" fill="white"/>
<path opacity="0.893" fill-rule="evenodd" clip-rule="evenodd" d="M11.6015 30.4131C12.4748 30.4662 12.7743 30.9089 12.4999 31.7412C12.2075 32.0349 11.856 32.1261 11.4453 32.0146C11.0071 31.7586 10.8638 31.3811 11.0156 30.8818C11.1803 30.677 11.3756 30.5207 11.6015 30.4131Z" fill="white"/>
</g>
<defs>
<clipPath id="clip0_55_1444">
<rect width="40" height="40" fill="white" transform="translate(0 0.608398)"/>
</clipPath>
</defs>
</svg>
