<svg width="40" height="40" viewBox="0 0 40 40" fill="none" xmlns="http://www.w3.org/2000/svg">
<g clip-path="url(#clip0_390_1451)">
<path opacity="0.945" fill-rule="evenodd" clip-rule="evenodd" d="M3.16406 -0.0390625C9.02344 -0.0390625 14.8828 -0.0390625 20.7422 -0.0390625C22.9888 0.634011 24.0826 2.15745 24.0234 4.53125C24.0104 4.83073 23.9974 5.13021 23.9844 5.42969C23.8402 5.93713 23.5147 6.1064 23.0078 5.9375C22.8385 5.8724 22.7213 5.75521 22.6562 5.58594C22.6425 4.8274 22.5905 4.07219 22.5 3.32031C22.0586 1.94009 21.1211 1.31509 19.6875 1.44531C19.1545 2.5637 18.5815 3.65745 17.9688 4.72656C17.6217 5.03679 17.218 5.2321 16.7578 5.3125C13.5547 5.36459 10.3516 5.36459 7.14844 5.3125C6.57815 5.22921 6.12242 4.95577 5.78125 4.49219C5.23743 3.46968 4.70358 2.44103 4.17969 1.40625C2.73636 1.33816 1.81187 2.00222 1.40625 3.39844C1.35416 14.4401 1.35416 25.4818 1.40625 36.5234C1.70573 37.5521 2.36979 38.2162 3.39844 38.5156C9.10156 38.5677 14.8047 38.5677 20.5078 38.5156C21.5559 38.2748 22.22 37.6367 22.5 36.6016C22.5448 36.228 22.623 35.8634 22.7344 35.5078C23.4359 35.0564 23.8656 35.2387 24.0234 36.0547C23.7981 38.1018 22.7044 39.4038 20.7422 39.9609C14.8828 39.9609 9.02344 39.9609 3.16406 39.9609C1.4974 39.4922 0.429688 38.4245 -0.0390625 36.7578C-0.0390625 25.5599 -0.0390625 14.362 -0.0390625 3.16406C0.429688 1.4974 1.4974 0.429688 3.16406 -0.0390625ZM5.82031 1.36719C9.90922 1.34115 13.9977 1.3672 18.0859 1.44531C17.7084 2.20052 17.3307 2.95573 16.9531 3.71094C16.8423 3.78595 16.7251 3.85105 16.6016 3.90625C13.5026 3.95834 10.4037 3.95834 7.30469 3.90625C7.13877 3.81862 6.99554 3.70143 6.875 3.55469C6.50127 2.83334 6.1497 2.10418 5.82031 1.36719Z" fill="white"/>
<path opacity="0.943" fill-rule="evenodd" clip-rule="evenodd" d="M39.9611 10.5077C39.9611 17.2525 39.9611 23.9973 39.9611 30.7421C39.5646 32.4278 38.5229 33.4825 36.8361 33.9061C33.4266 33.9956 30.0151 34.0347 26.6018 34.0233C23.3986 34.0103 20.1955 33.9973 16.9924 33.9843C14.8887 33.7035 13.6517 32.5186 13.2815 30.4296C13.2684 28.8404 13.2293 27.2518 13.1643 25.664C10.6903 24.3489 8.21638 23.0337 5.74239 21.7186C5.19889 21.105 5.13379 20.4409 5.54708 19.7265C8.05489 18.2966 10.594 16.9164 13.1643 15.5858C13.2293 13.9979 13.2684 12.4094 13.2815 10.8202C13.662 8.69489 14.925 7.50998 17.0705 7.26551C20.2476 7.25249 23.4247 7.23948 26.6018 7.22645C30.015 7.21535 33.4264 7.25441 36.8361 7.34364C38.4968 7.79327 39.5384 8.84794 39.9611 10.5077ZM17.1486 8.6327C23.4508 8.61966 29.7529 8.6327 36.0549 8.67176C37.3275 8.82458 38.1478 9.51473 38.5158 10.7421C38.5679 17.3306 38.5679 23.9192 38.5158 30.5077C38.1942 31.6913 37.4259 32.3814 36.2111 32.578C29.8309 32.6301 23.4508 32.6301 17.0705 32.578C15.7386 32.3659 14.9443 31.5977 14.6877 30.2733C14.6617 28.5025 14.6356 26.7317 14.6096 24.9608C14.4234 24.7442 14.202 24.575 13.9455 24.453C11.5497 23.177 9.15388 21.9009 6.75802 20.6249C9.20591 19.3228 11.6539 18.0207 14.1018 16.7186C14.2665 16.6295 14.4097 16.5123 14.5315 16.3671C14.634 14.5771 14.6861 12.7802 14.6877 10.9765C14.9672 9.61598 15.7875 8.83473 17.1486 8.6327Z" fill="white"/>
<path opacity="0.943" fill-rule="evenodd" clip-rule="evenodd" d="M17.617 12.6172C18.2165 12.6042 18.8155 12.6172 19.4138 12.6562C20.3044 12.9869 20.7991 13.6249 20.8982 14.5703C25.5598 14.5572 30.2212 14.5703 34.8826 14.6094C35.763 14.8721 36.1145 15.458 35.9373 16.3672C35.1906 18.5554 34.3834 20.7169 33.5154 22.8515C33.3937 22.9968 33.2505 23.114 33.0857 23.2031C29.5227 23.3191 25.955 23.3582 22.3826 23.3203C22.4045 23.6084 22.4436 23.8949 22.4998 24.1797C22.5648 24.349 22.682 24.4662 22.8513 24.5312C26.393 24.5572 29.9347 24.5833 33.4763 24.6094C34.1331 24.973 34.1852 25.4158 33.6326 25.9375C33.4784 25.9762 33.3222 25.9892 33.1638 25.9765C33.5685 27.2108 33.256 28.2133 32.2263 28.9844C30.9686 29.6106 29.8879 29.3892 28.9841 28.3203C28.5541 27.5904 28.4889 26.8352 28.7888 26.0547C27.7992 25.9505 26.8097 25.9505 25.8201 26.0547C26.2779 27.6522 25.731 28.7329 24.1795 29.2969C22.0952 29.4261 21.1446 28.4495 21.3279 26.3672C21.4202 26.0654 21.5634 25.7919 21.7576 25.5469C21.4066 25.2473 21.1852 24.8697 21.0935 24.414C20.5466 21.1328 19.9998 17.8515 19.4529 14.5703C19.399 14.3597 19.2818 14.1904 19.1013 14.0625C18.6586 14.0365 18.2159 14.0104 17.7732 13.9844C17.1284 13.5986 17.0763 13.1428 17.617 12.6172ZM21.1326 15.9765C21.4504 17.9486 21.7889 19.9147 22.1482 21.875C25.5856 21.914 29.0231 21.9271 32.4607 21.914C33.1249 19.9345 33.8281 17.9683 34.5701 16.0156C30.091 15.9765 25.6118 15.9635 21.1326 15.9765ZM23.4763 25.9765C22.7478 26.2361 22.5265 26.7309 22.8123 27.4609C23.3096 28.0476 23.8305 28.0737 24.3748 27.539C24.7439 26.6368 24.4444 26.116 23.4763 25.9765ZM30.8201 25.9765C30.0916 26.2361 29.8702 26.7309 30.156 27.4609C30.6506 28.0548 31.1714 28.0808 31.7185 27.539C32.0877 26.6368 31.7881 26.116 30.8201 25.9765Z" fill="white"/>
<path opacity="0.94" fill-rule="evenodd" clip-rule="evenodd" d="M6.44571 35.8984C10.1177 35.8854 13.7895 35.8984 17.4613 35.9375C18.037 36.1965 18.1542 36.6002 17.8129 37.1484C17.7543 37.1974 17.6891 37.2364 17.6176 37.2656C13.8416 37.3177 10.0655 37.3177 6.28946 37.2656C5.74661 36.7384 5.7987 36.2827 6.44571 35.8984Z" fill="white"/>
</g>
<defs>
<clipPath id="clip0_390_1451">
<rect width="40" height="40" fill="white"/>
</clipPath>
</defs>
</svg>
