<svg width="61" height="25" viewBox="0 0 61 25" fill="none" xmlns="http://www.w3.org/2000/svg">
<path d="M27.0923 12.5958L39.3805 0.5H25.3164L19.9403 5.68362L14.5642 0.5H0.5L12.7882 12.5958L0.5 24.5H14.9965L19.9403 19.652L24.885 24.5H39.3805L27.0923 12.5958Z" fill="#454173"/>
<path fill-rule="evenodd" clip-rule="evenodd" d="M25.3862 0.521484H43.0122C48.5219 0.521484 52.9132 1.55319 55.9452 3.57523C59.0092 5.61858 60.6391 8.6454 60.6391 12.4744C60.6391 16.3029 59.0092 19.3295 55.9452 21.3727C52.9131 23.3946 48.5219 24.4263 43.0122 24.4263H25.3862V0.521484ZM26.5785 1.71378V23.234H43.0122C48.4008 23.234 52.5249 22.2204 55.2837 20.3808C58.0105 18.5624 59.4468 15.911 59.4468 12.4744C59.4468 9.03722 58.0105 6.38566 55.2837 4.56717C52.5249 2.72737 48.4008 1.71378 43.0122 1.71378H26.5785ZM38.101 8.24516H43.0596C44.5095 8.24516 45.7326 8.59578 46.6019 9.33641C47.4854 10.089 47.9243 11.1768 47.9243 12.4744C47.9243 13.7749 47.4856 14.8629 46.6015 15.6148C45.7319 16.3543 44.5087 16.7026 43.0596 16.7026H38.101V8.24516ZM39.2933 9.43745V15.5104H43.0596C44.3344 15.5104 45.2455 15.2028 45.8291 14.7065C46.3984 14.2224 46.732 13.4943 46.732 12.4744C46.732 11.4582 46.3986 10.7295 45.8287 10.244C45.2448 9.74652 44.3335 9.43745 43.0596 9.43745H39.2933Z" fill="#454173"/>
</svg>
