<svg width="40" height="40" viewBox="0 0 40 40" fill="none" xmlns="http://www.w3.org/2000/svg">
<g clip-path="url(#clip0_390_1460)">
<path opacity="0.959" fill-rule="evenodd" clip-rule="evenodd" d="M5.74219 -0.0390625C13.8932 -0.0390625 22.0443 -0.0390625 30.1953 -0.0390625C32.1198 1.8203 34.0078 3.72134 35.8594 5.66406C35.9115 16.5234 35.9115 27.3828 35.8594 38.2422C35.5977 39.1158 35.0377 39.6888 34.1797 39.9609C24.7006 39.9609 15.2213 39.9609 5.74219 39.9609C4.88412 39.6888 4.32423 39.1158 4.0625 38.2422C4.01042 34.0234 4.01042 29.8047 4.0625 25.5859C4.36101 25.1255 4.76465 25.0084 5.27344 25.2344C5.46044 25.3869 5.57763 25.5822 5.625 25.8203C5.65104 29.8307 5.67709 33.8412 5.70313 37.8516C5.79428 38.0469 5.9375 38.1901 6.13281 38.2812C15.3516 38.3334 24.5703 38.3334 33.7891 38.2812C33.9286 38.2199 34.0458 38.1288 34.1406 38.0078C34.2576 27.6235 34.2966 17.2329 34.2578 6.83594C29.9349 7.66927 28.1901 5.92448 29.0234 1.60156C21.3348 1.56287 13.6525 1.60193 5.97656 1.71875C5.85556 1.81359 5.76442 1.93078 5.70313 2.07031C5.67709 7.92969 5.65104 13.7891 5.625 19.6484C5.36428 20.332 4.90854 20.5012 4.25781 20.1562C4.16396 20.0857 4.09885 19.9946 4.0625 19.8828C4.01042 13.8151 4.01042 7.7474 4.0625 1.67969C4.32423 0.80607 4.88412 0.233154 5.74219 -0.0390625ZM30.6641 2.85156C31.4556 3.604 32.2369 4.37223 33.0078 5.15625C32.3227 5.22969 31.6456 5.20365 30.9766 5.07812C30.8555 4.98328 30.7645 4.86609 30.7031 4.72656C30.6641 4.1021 30.6511 3.4771 30.6641 2.85156Z" fill="white"/>
<path opacity="0.954" fill-rule="evenodd" clip-rule="evenodd" d="M14.1016 4.49219C16.5296 4.51169 17.8838 5.72263 18.1641 8.125C18.1212 8.93055 17.8608 9.65977 17.3828 10.3125C18.3761 10.8113 18.9881 11.6055 19.2188 12.6953C19.2709 13.7891 19.2709 14.8828 19.2188 15.9766C19.161 16.2166 19.0178 16.3859 18.7891 16.4844C15.9506 16.5365 13.112 16.5365 10.2735 16.4844C10.0781 16.3932 9.93494 16.25 9.84377 16.0547C9.79166 14.9349 9.79166 13.8151 9.84377 12.6953C10.0762 11.6041 10.6881 10.8098 11.6797 10.3125C10.6327 8.80859 10.6456 7.31116 11.7188 5.82031C12.3656 5.10002 13.1599 4.65731 14.1016 4.49219ZM14.336 6.13281C13.8519 6.25145 13.4222 6.48582 13.0469 6.83594C12.3785 7.88828 12.4956 8.83883 13.3985 9.6875C14.5492 10.3195 15.4997 10.0981 16.25 9.02344C16.724 7.323 16.086 6.35946 14.336 6.13281ZM12.8516 11.6797C12.2555 11.7927 11.8258 12.1312 11.5625 12.6953C11.4518 13.4181 11.4128 14.1473 11.4453 14.8828C13.5026 14.8828 15.5599 14.8828 17.6172 14.8828C17.6302 14.2573 17.6172 13.6323 17.5781 13.0078C17.4006 12.2834 16.9449 11.8538 16.211 11.7188C15.0915 11.6797 13.9717 11.6666 12.8516 11.6797Z" fill="white"/>
<path opacity="0.913" fill-rule="evenodd" clip-rule="evenodd" d="M22.3827 8.47657C24.5182 8.46353 26.6537 8.47657 28.7889 8.51564C29.4344 8.73134 29.6297 9.16103 29.3748 9.8047C29.2034 10.0142 28.9821 10.1313 28.7108 10.1563C26.6014 10.2084 24.492 10.2084 22.3827 10.1563C21.6431 9.93962 21.4477 9.48384 21.7967 8.78907C21.9729 8.6329 22.1682 8.52876 22.3827 8.47657Z" fill="white"/>
<path opacity="0.891" fill-rule="evenodd" clip-rule="evenodd" d="M22.0699 11.6798C22.9675 11.5747 23.3451 11.9653 23.2027 12.8517C22.7421 13.4446 22.2473 13.4707 21.7183 12.9298C21.4964 12.4119 21.6136 11.9953 22.0699 11.6798Z" fill="white"/>
<path opacity="0.938" fill-rule="evenodd" clip-rule="evenodd" d="M25.2737 11.6797C26.524 11.6667 27.774 11.6797 29.0237 11.7188C29.6107 12.182 29.6367 12.6769 29.1019 13.2031C29.0237 13.2292 28.9456 13.2552 28.8675 13.2813C27.6956 13.3334 26.5237 13.3334 25.3519 13.2813C24.818 13.0347 24.6488 12.631 24.8441 12.0703C24.9792 11.9217 25.1224 11.7915 25.2737 11.6797Z" fill="white"/>
<path opacity="0.946" fill-rule="evenodd" clip-rule="evenodd" d="M22.3043 14.7266C24.4659 14.7135 26.6273 14.7266 28.7886 14.7656C29.481 15.0192 29.6502 15.4749 29.2964 16.1328C29.2259 16.2267 29.1348 16.2918 29.023 16.3281C26.7053 16.3802 24.3876 16.3802 22.0699 16.3281C21.5727 15.9891 21.4815 15.5594 21.7965 15.0391C21.9537 14.9025 22.123 14.7983 22.3043 14.7266Z" fill="white"/>
<path opacity="0.931" fill-rule="evenodd" clip-rule="evenodd" d="M14.6487 19.6484C15.6059 19.5585 15.9574 19.9752 15.7034 20.8984C14.5978 22.3163 13.465 23.7095 12.3049 25.0781C12.0445 25.1302 11.7841 25.1302 11.5237 25.0781C10.9827 24.6578 10.4488 24.2281 9.92211 23.7891C9.64508 22.9474 9.94453 22.5177 10.8205 22.5C11.0926 22.5972 11.327 22.7534 11.5237 22.9688C11.622 23.0455 11.7262 23.0715 11.8362 23.0469C12.6044 22.0703 13.3727 21.0938 14.1409 20.1172C14.302 19.9427 14.4713 19.7864 14.6487 19.6484Z" fill="white"/>
<path opacity="0.953" fill-rule="evenodd" clip-rule="evenodd" d="M18.711 19.8047C22.2267 19.7917 25.7423 19.8047 29.2578 19.8438C29.8335 20.1699 29.9507 20.6256 29.6094 21.2109C29.4985 21.2859 29.3814 21.351 29.2578 21.4063C25.7422 21.4584 22.2266 21.4584 18.711 21.4063C18.3175 21.2972 18.1353 21.0368 18.1641 20.625C18.1503 20.2109 18.3327 19.9374 18.711 19.8047Z" fill="white"/>
<path opacity="0.9" fill-rule="evenodd" clip-rule="evenodd" d="M4.4141 21.836C5.09634 21.6866 5.51302 21.947 5.6641 22.6173C5.57508 23.2669 5.2105 23.5403 4.57035 23.4376C4.38694 23.4105 4.2437 23.3194 4.14067 23.1641C3.91558 22.6458 4.00673 22.2031 4.4141 21.836Z" fill="white"/>
<path opacity="0.954" fill-rule="evenodd" clip-rule="evenodd" d="M18.7894 23.4766C22.2531 23.4635 25.7166 23.4766 29.1801 23.5156C29.7913 23.7626 29.9606 24.1923 29.6879 24.8047C29.593 24.9257 29.4758 25.0168 29.3363 25.0781C25.7686 25.1302 22.2009 25.1302 18.6332 25.0781C18.2971 24.927 18.1408 24.6666 18.1644 24.2969C18.1831 23.875 18.3915 23.6016 18.7894 23.4766Z" fill="white"/>
<path opacity="0.953" fill-rule="evenodd" clip-rule="evenodd" d="M18.6328 27.2266C22.1746 27.2135 25.7163 27.2266 29.2578 27.2656C29.8335 27.5918 29.9507 28.0475 29.6094 28.6328C29.4985 28.7078 29.3814 28.7729 29.2578 28.8281C25.7422 28.8802 22.2266 28.8802 18.711 28.8281C18.3175 28.7191 18.1353 28.4587 18.1641 28.0469C18.1503 27.6701 18.3066 27.3967 18.6328 27.2266Z" fill="white"/>
<path opacity="0.93" fill-rule="evenodd" clip-rule="evenodd" d="M14.7263 27.3047C15.7119 27.3393 16.0114 27.808 15.6248 28.7109C14.544 30.0521 13.4633 31.3932 12.3826 32.7344C12.0701 32.8906 11.7576 32.8906 11.4451 32.7344C10.9144 32.334 10.4065 31.9043 9.92163 31.4453C9.65803 30.5109 10.0096 30.1072 10.9763 30.2344C11.2107 30.4166 11.4451 30.599 11.6794 30.7812C11.7315 30.8334 11.7836 30.8334 11.8357 30.7812C12.6655 29.7336 13.4858 28.6789 14.2966 27.6172C14.4382 27.5018 14.5814 27.3977 14.7263 27.3047Z" fill="white"/>
<path opacity="0.954" fill-rule="evenodd" clip-rule="evenodd" d="M18.7894 30.8984C22.2531 30.8854 25.7166 30.8984 29.1801 30.9375C29.7913 31.1845 29.9606 31.6142 29.6879 32.2266C29.593 32.3476 29.4758 32.4387 29.3363 32.5C25.7686 32.5521 22.2009 32.5521 18.6332 32.5C18.2971 32.3488 18.1408 32.0884 18.1644 31.7188C18.1769 31.2881 18.3852 31.0147 18.7894 30.8984Z" fill="white"/>
</g>
<defs>
<clipPath id="clip0_390_1460">
<rect width="40" height="40" fill="white"/>
</clipPath>
</defs>
</svg>
