<svg width="16" height="17" viewBox="0 0 16 17" fill="none" xmlns="http://www.w3.org/2000/svg">
<g clip-path="url(#clip0_848_313)">
<path opacity="0.974" fill-rule="evenodd" clip-rule="evenodd" d="M3.79688 0.592773C6.58853 0.592773 9.38022 0.592773 12.1719 0.592773C14.3073 0.999023 15.5781 2.26986 15.9844 4.40527C15.9844 7.19693 15.9844 9.98862 15.9844 12.7803C15.5781 14.9157 14.3073 16.1865 12.1719 16.5928C9.38022 16.5928 6.58853 16.5928 3.79688 16.5928C1.66146 16.1865 0.390625 14.9157 -0.015625 12.7803C-0.015625 9.98862 -0.015625 7.19693 -0.015625 4.40527C0.390625 2.26986 1.66146 0.999023 3.79688 0.592773ZM3.89062 1.56152C6.61981 1.55631 9.34897 1.56152 12.0781 1.57715C13.6253 1.85345 14.5888 2.75449 14.9688 4.28027C14.9999 4.49799 15.0208 4.71674 15.0312 4.93652C15.0521 7.37402 15.0521 9.81152 15.0312 12.249C14.941 13.8387 14.1545 14.9169 12.6719 15.4834C12.3353 15.5821 11.9916 15.6341 11.6406 15.6396C9.20312 15.6605 6.76562 15.6605 4.32812 15.6396C2.85168 15.5685 1.80481 14.8654 1.1875 13.5303C1.08039 13.2581 1.00748 12.9768 0.96875 12.6865C0.938059 9.88362 0.948475 7.08155 1 4.28027C1.38541 2.75411 2.34895 1.84786 3.89062 1.56152Z" fill="white"/>
<path opacity="0.963" fill-rule="evenodd" clip-rule="evenodd" d="M12.2344 2.65526C13.034 2.59869 13.5393 2.95286 13.75 3.71776C13.8301 4.39638 13.5645 4.88076 12.9531 5.17088C12.2323 5.38888 11.675 5.17532 11.2813 4.53026C11.0175 3.83188 11.1894 3.26417 11.7969 2.82713C11.9425 2.7597 12.0883 2.70241 12.2344 2.65526ZM12.3594 3.62401C12.2838 3.67537 12.2161 3.73788 12.1563 3.81151C12.0956 4.01119 12.1529 4.16222 12.3281 4.26463C12.5434 4.33388 12.6944 4.26616 12.7813 4.06151C12.8068 3.75885 12.6662 3.61303 12.3594 3.62401Z" fill="white"/>
<path opacity="0.962" fill-rule="evenodd" clip-rule="evenodd" d="M7.48434 4.21758C9.37515 4.10299 10.8178 4.84258 11.8125 6.43633C12.3969 7.53077 12.5219 8.67662 12.1875 9.87383C11.5683 11.6393 10.3339 12.6653 8.48434 12.952C6.59281 13.0818 5.15009 12.3474 4.15622 10.7488C3.57178 9.6544 3.44678 8.50855 3.78122 7.31133C4.40766 5.54818 5.64203 4.51693 7.48434 4.21758ZM7.54684 5.18633C5.90141 5.51405 4.91703 6.50365 4.59372 8.15508C4.48684 9.83821 5.18997 11.0413 6.70309 11.7645C7.99406 12.2246 9.17112 12.0267 10.2343 11.1707C11.3591 10.0829 11.6664 8.79646 11.1562 7.31133C10.4323 5.80299 9.22916 5.09465 7.54684 5.18633Z" fill="white"/>
</g>
<defs>
<clipPath id="clip0_848_313">
<rect width="16" height="16" fill="white" transform="translate(0 0.608398)"/>
</clipPath>
</defs>
</svg>
