<svg width="40" height="40" viewBox="0 0 40 40" fill="none" xmlns="http://www.w3.org/2000/svg">
<path opacity="0.946" fill-rule="evenodd" clip-rule="evenodd" d="M19.6483 1.21102C19.92 1.18635 20.1805 1.22541 20.4296 1.32821C23.1517 3.89622 24.4668 7.06029 24.3749 10.8204C25.505 11.8299 26.2342 13.0799 26.5624 14.5704C26.8075 15.6256 26.8857 16.6934 26.7968 17.7735C26.7577 17.9167 26.6665 18.0079 26.5233 18.047C26.2527 18.1108 25.9922 18.0847 25.7421 17.9688C25.1579 16.942 24.3116 16.2258 23.203 15.8204C22.9686 16.237 22.7343 16.6538 22.4999 17.0704C22.4258 17.2321 22.3086 17.3493 22.1483 17.422C20.69 17.4741 19.2317 17.4741 17.7733 17.422C17.613 17.3493 17.4958 17.2321 17.4218 17.0704C17.1874 16.6538 16.953 16.237 16.7186 15.8204C15.61 16.2258 14.7637 16.942 14.1796 17.9688C13.9294 18.0847 13.6689 18.1108 13.3983 18.047C13.2551 18.0079 13.1639 17.9167 13.1249 17.7735C12.9561 15.8052 13.3467 13.9562 14.2968 12.2266C14.6554 11.7114 15.0721 11.2427 15.5468 10.8204C15.4212 6.96106 16.7884 3.75793 19.6483 1.21102ZM19.8827 2.85165C20.1351 2.98601 20.3564 3.1683 20.5468 3.39852C20.7776 3.69104 20.999 3.99052 21.2108 4.29696C20.3775 4.34904 19.5442 4.34904 18.7108 4.29696C19.0553 3.777 19.4459 3.29523 19.8827 2.85165ZM17.9296 5.58602C19.2847 5.56002 20.6389 5.58606 21.9921 5.66415C22.8947 7.48998 23.2203 9.41704 22.9686 11.4454C22.8427 13.1381 22.3349 14.7006 21.4452 16.1329C20.4556 16.237 19.4661 16.237 18.4764 16.1329C17.5868 14.7006 17.0789 13.1381 16.953 11.4454C16.705 9.39219 17.0304 7.4391 17.9296 5.58602ZM15.6639 12.6173C15.7537 12.64 15.8058 12.7051 15.8202 12.8126C15.916 13.4043 16.0722 13.9772 16.2889 14.5313C15.6881 14.7601 15.1282 15.0595 14.6093 15.4298C14.7193 14.4023 15.0708 13.4648 15.6639 12.6173ZM24.1014 12.6173C24.22 12.6181 24.3111 12.6702 24.3749 12.7735C24.906 13.5859 25.2185 14.4713 25.3124 15.4298C24.791 15.0584 24.2311 14.7589 23.6327 14.5313C23.8562 13.9108 24.0125 13.2728 24.1014 12.6173Z" fill="white"/>
<path opacity="0.968" fill-rule="evenodd" clip-rule="evenodd" d="M2.53906 4.96094C6.5756 4.94792 10.612 4.96094 14.6484 5C15.1331 5.35316 15.1591 5.74378 14.7266 6.17188C10.8463 6.19792 6.96615 6.22396 3.08594 6.25C2.8691 6.25513 2.69982 6.34628 2.57813 6.52344C2.46185 12.6658 2.42278 18.8116 2.46094 24.9609C4.33667 24.987 6.21167 24.9609 8.08594 24.8828C8.75117 22.6171 10.2616 21.6145 12.6172 21.875C12.8766 21.9622 13.137 22.0143 13.3984 22.0313C13.9277 21.006 14.748 20.368 15.8594 20.1172C16.3892 20.1593 16.5976 20.4458 16.4844 20.9766C16.423 21.1161 16.332 21.2333 16.2109 21.3281C15.738 21.4667 15.3344 21.7141 15 22.0703C14.6527 22.5695 14.3793 23.1034 14.1797 23.6719C13.9558 23.7857 13.7214 23.8117 13.4766 23.75C12.4252 22.9236 11.3574 22.8976 10.2734 23.6719C9.90289 24.0036 9.64242 24.4073 9.49219 24.8828C16.4713 24.987 23.4506 24.987 30.4297 24.8828C29.8187 23.4315 28.7509 22.8976 27.2266 23.2813C26.9402 23.3982 26.6798 23.5545 26.4453 23.75C26.2005 23.8117 25.9661 23.7857 25.7422 23.6719C25.5426 23.1034 25.2691 22.5695 24.9219 22.0703C24.5875 21.7141 24.1838 21.4667 23.7109 21.3281C23.2943 20.9375 23.2943 20.5469 23.7109 20.1563C24.356 20.1021 24.9289 20.2845 25.4297 20.7031C25.8828 21.0777 26.2474 21.5203 26.5234 22.0313C28.3103 21.4655 29.8338 21.8691 31.0938 23.2422C31.4259 23.7504 31.6734 24.2973 31.8359 24.8828C33.6841 24.9609 35.5331 24.987 37.3828 24.9609C37.3959 18.8151 37.3828 12.6692 37.3438 6.52344C37.222 6.34628 37.0528 6.25513 36.8359 6.25C32.9557 6.22396 29.0756 6.19792 25.1953 6.17188C24.7787 5.78125 24.7787 5.39063 25.1953 5C29.2578 4.94792 33.3203 4.94792 37.3828 5C38.0209 5.22135 38.4506 5.65104 38.6719 6.28906C38.724 14.1537 38.724 22.0182 38.6719 29.8828C38.4506 30.5209 38.0209 30.9506 37.3828 31.1719C25.7682 31.224 14.1537 31.224 2.53906 31.1719C1.90104 30.9506 1.47135 30.5209 1.25 29.8828C1.19792 22.0182 1.19792 14.1537 1.25 6.28906C1.48587 5.64966 1.91556 5.20695 2.53906 4.96094ZM2.46094 26.2109C14.1016 26.2109 25.7422 26.2109 37.3828 26.2109C37.3959 27.331 37.3828 28.4509 37.3438 29.5703C37.3047 29.7135 37.2135 29.8047 37.0703 29.8438C25.6641 29.8959 14.2578 29.8959 2.85156 29.8438C2.64888 29.7391 2.5317 29.5698 2.5 29.3359C2.46095 28.2946 2.44792 27.2529 2.46094 26.2109Z" fill="white"/>
<path opacity="0.933" fill-rule="evenodd" clip-rule="evenodd" d="M19.414 8.086C20.8365 7.90795 21.6699 8.51999 21.914 9.92194C21.5595 11.6749 20.5439 12.2218 18.8671 11.5626C18.0278 10.7976 17.8585 9.8992 18.3593 8.86725C18.6389 8.49467 18.9905 8.2342 19.414 8.086ZM19.6484 9.41413C19.5998 9.50217 19.5347 9.5803 19.4531 9.6485C19.3347 10.403 19.6342 10.6505 20.3515 10.3907C20.666 9.67959 20.4316 9.35405 19.6484 9.41413Z" fill="white"/>
<path opacity="0.929" fill-rule="evenodd" clip-rule="evenodd" d="M17.7733 18.7109C18.0091 18.698 18.2435 18.711 18.4765 18.7499C18.5415 18.815 18.6067 18.8802 18.6718 18.9452C18.6901 19.9047 18.9506 20.7901 19.453 21.6015C19.5867 21.8167 19.756 21.9991 19.9608 22.1484C20.3551 21.8036 20.6546 21.387 20.8593 20.8984C21.0639 20.2626 21.1941 19.6115 21.2499 18.9452C21.5893 18.6618 21.9538 18.6357 22.3437 18.8671C22.5852 20.7935 21.9473 22.3691 20.4296 23.5937C20.1171 23.7499 19.8046 23.7499 19.4921 23.5937C18.0496 22.4139 17.3855 20.8905 17.4999 19.0234C17.5538 18.8788 17.6449 18.7746 17.7733 18.7109Z" fill="white"/>
<path opacity="0.959" fill-rule="evenodd" clip-rule="evenodd" d="M18.3985 27.4609C19.4666 27.4479 20.5342 27.4609 21.6017 27.5C22.0176 27.8942 22.0176 28.2849 21.6017 28.6719C20.5339 28.724 19.4663 28.724 18.3985 28.6719C18.1629 28.5524 18.0588 28.3571 18.086 28.0859C18.069 27.8074 18.1732 27.5991 18.3985 27.4609Z" fill="white"/>
<path opacity="0.978" fill-rule="evenodd" clip-rule="evenodd" d="M16.1328 32.3829C16.8916 32.3211 17.191 32.6596 17.0313 33.3985C16.7406 33.9494 16.3891 34.4572 15.9766 34.9219C18.6328 34.9741 21.2891 34.9741 23.9453 34.9219C23.4373 34.3737 23.0727 33.7487 22.8516 33.0469C22.9166 32.4924 23.2291 32.2841 23.7891 32.4219C24.3478 33.3459 25.0249 34.1792 25.8203 34.9219C26.3412 34.948 26.862 34.9741 27.3828 35.0001C28.2557 35.3002 28.7114 35.9122 28.75 36.836C28.8148 37.3621 28.7888 37.883 28.6719 38.3985C28.6328 38.5417 28.5417 38.6329 28.3985 38.6719C22.7735 38.7241 17.1485 38.7241 11.5235 38.6719C11.3803 38.6329 11.2891 38.5417 11.25 38.3985C11.1979 37.6954 11.1979 36.9923 11.25 36.2891C11.4713 35.6511 11.901 35.2214 12.5391 35.0001C13.0599 34.9741 13.5807 34.948 14.1016 34.9219C14.9141 34.1755 15.5912 33.3292 16.1328 32.3829ZM13.086 36.211C17.6694 36.198 22.2527 36.211 26.836 36.2501C27.0528 36.2552 27.222 36.3463 27.3438 36.5235C27.4341 36.8296 27.4731 37.1421 27.461 37.461C22.487 37.461 17.5131 37.461 12.5391 37.461C12.5262 37.1734 12.5392 36.8869 12.5781 36.6016C12.6775 36.3679 12.8467 36.2377 13.086 36.211Z" fill="white"/>
</svg>
