<svg width="61" height="25" viewBox="0 0 61 25" fill="none" xmlns="http://www.w3.org/2000/svg">
<path d="M26.5923 12.5958L38.8805 0.5H24.8164L19.4403 5.68362L14.0642 0.5H0L12.2882 12.5958L0 24.5H14.4965L19.4403 19.652L24.385 24.5H38.8805L26.5923 12.5958Z" fill="white"/>
<path fill-rule="evenodd" clip-rule="evenodd" d="M24.8862 0.521484H42.5122C48.0219 0.521484 52.4132 1.55319 55.4452 3.57523C58.5092 5.61858 60.1391 8.6454 60.1391 12.4744C60.1391 16.3029 58.5092 19.3295 55.4452 21.3727C52.4131 23.3946 48.0219 24.4263 42.5122 24.4263H24.8862V0.521484ZM26.0785 1.71378V23.234H42.5122C47.9008 23.234 52.0249 22.2204 54.7837 20.3808C57.5105 18.5624 58.9468 15.911 58.9468 12.4744C58.9468 9.03722 57.5105 6.38566 54.7837 4.56717C52.0249 2.72737 47.9008 1.71378 42.5122 1.71378H26.0785ZM37.601 8.24516H42.5596C44.0095 8.24516 45.2326 8.59578 46.1019 9.33641C46.9854 10.089 47.4243 11.1768 47.4243 12.4744C47.4243 13.7749 46.9856 14.8629 46.1015 15.6148C45.2319 16.3543 44.0087 16.7026 42.5596 16.7026H37.601V8.24516ZM38.7933 9.43745V15.5104H42.5596C43.8344 15.5104 44.7455 15.2028 45.3291 14.7065C45.8984 14.2224 46.232 13.4943 46.232 12.4744C46.232 11.4582 45.8986 10.7295 45.3287 10.244C44.7448 9.74652 43.8335 9.43745 42.5596 9.43745H38.7933Z" fill="white"/>
</svg>
