<svg width="16" height="17" viewBox="0 0 16 17" fill="none" xmlns="http://www.w3.org/2000/svg">
<g clip-path="url(#clip0_848_298)">
<path opacity="0.949" fill-rule="evenodd" clip-rule="evenodd" d="M7.35941 0.0927734C7.77607 0.0927734 8.19275 0.0927734 8.60941 0.0927734C11.0012 0.457695 12.6523 1.75978 13.5625 3.99902C14.0658 5.45477 14.0137 6.89227 13.4063 8.31152C13.2813 8.56152 13.1563 8.81152 13.0313 9.06152C11.6016 11.2648 10.1641 13.4627 8.71879 15.6553C8.5876 15.8546 8.41572 16.0004 8.20316 16.0928C8.05732 16.0928 7.9115 16.0928 7.76566 16.0928C7.5531 16.0004 7.38122 15.8546 7.25004 15.6553C5.80475 13.4627 4.36725 11.2648 2.93754 9.06152C1.73543 6.90927 1.7771 4.78427 3.06254 2.68652C4.122 1.21119 5.55429 0.346605 7.35941 0.0927734ZM7.54691 0.811523C9.9825 0.755258 11.7273 1.81776 12.7813 3.99902C13.2902 5.26537 13.3006 6.53618 12.8125 7.81152C12.6875 8.08237 12.5625 8.35318 12.4375 8.62402C10.9828 10.8959 9.49844 13.1459 7.98441 15.374C6.47038 13.1459 4.986 10.8959 3.53129 8.62402C2.39341 6.49152 2.57049 4.48112 4.06254 2.59277C5.00169 1.56331 6.16313 0.969561 7.54691 0.811523Z" fill="white"/>
<path opacity="0.949" fill-rule="evenodd" clip-rule="evenodd" d="M7.54683 2.87378C9.08302 2.75866 10.1924 3.38366 10.875 4.74878C11.3844 6.14312 11.1084 7.35666 10.0468 8.38941C8.81617 9.31744 7.53492 9.39034 6.20308 8.60816C4.91817 7.58872 4.54836 6.30225 5.09371 4.74878C5.60055 3.71575 6.41827 3.09076 7.54683 2.87378ZM7.67183 3.59253C6.93874 3.72737 6.36061 4.10237 5.93746 4.71753C5.3378 5.84847 5.47842 6.8745 6.35933 7.79566C7.1298 8.43309 7.98399 8.57894 8.92183 8.23316C10.1487 7.59681 10.6018 6.602 10.2812 5.24878C9.79971 4.09356 8.92992 3.54147 7.67183 3.59253Z" fill="white"/>
</g>
<defs>
<clipPath id="clip0_848_298">
<rect width="16" height="16" fill="white" transform="translate(0 0.108398)"/>
</clipPath>
</defs>
</svg>
