<svg width="16" height="17" viewBox="0 0 16 17" fill="none" xmlns="http://www.w3.org/2000/svg">
<g clip-path="url(#clip0_848_293)">
<path opacity="0.965" fill-rule="evenodd" clip-rule="evenodd" d="M15.9844 3.34277C15.9844 6.50943 15.9844 9.67612 15.9844 12.8428C15.8828 13.1474 15.6745 13.3401 15.3594 13.4209C10.4427 13.4417 5.52603 13.4417 0.609375 13.4209C0.294276 13.3401 0.0859431 13.1474 -0.015625 12.8428C-0.015625 9.67612 -0.015625 6.50943 -0.015625 3.34277C0.0859431 3.03819 0.294276 2.84549 0.609375 2.76465C5.52603 2.74381 10.4427 2.74381 15.3594 2.76465C15.6745 2.84549 15.8828 3.03819 15.9844 3.34277ZM1.17188 3.40527C5.70831 3.36884 10.25 3.36362 14.7969 3.38965C12.6927 4.97299 10.5885 6.55631 8.48438 8.13965C8.15103 8.36881 7.81772 8.36881 7.48438 8.13965C5.38488 6.55365 3.28069 4.97552 1.17188 3.40527ZM0.609375 3.81152C2.77977 5.42315 4.94644 7.04293 7.10938 8.6709C7.54728 8.94827 8.01603 9.01077 8.51562 8.8584C8.67163 8.79087 8.81747 8.70752 8.95312 8.6084C11.0749 6.99802 13.2052 5.39909 15.3438 3.81152C15.3646 6.64487 15.3646 9.47818 15.3438 12.3115C14.2188 10.9157 13.0938 9.51987 11.9688 8.12402C11.7415 7.90512 11.5436 7.92593 11.375 8.18652C11.3465 8.31002 11.3673 8.42462 11.4375 8.53027C12.5885 9.95215 13.7396 11.374 14.8906 12.7959C10.2865 12.8167 5.68228 12.8167 1.07812 12.7959C2.26877 11.3466 3.44066 9.88309 4.59375 8.40527C4.64447 8.09462 4.51425 7.95399 4.20312 7.9834C4.12181 8.01099 4.05409 8.05787 4 8.12402C2.875 9.51987 1.75 10.9157 0.625 12.3115C0.609375 9.47821 0.604166 6.64487 0.609375 3.81152Z" fill="white"/>
</g>
<defs>
<clipPath id="clip0_848_293">
<rect width="16" height="16" fill="white" transform="translate(0 0.108398)"/>
</clipPath>
</defs>
</svg>
