<svg width="40" height="40" viewBox="0 0 40 40" fill="none" xmlns="http://www.w3.org/2000/svg">
<path opacity="0.914" fill-rule="evenodd" clip-rule="evenodd" d="M4.96094 0.976564C9.88289 0.96354 14.8048 0.976564 19.7266 1.01563C21.0971 1.31842 21.9956 2.13873 22.4219 3.47656C22.5203 4.26059 22.2078 4.49497 21.4844 4.17969C21.0816 2.65787 20.092 1.95474 18.5156 2.07031C18.2162 2.09635 17.9166 2.1224 17.6172 2.14844C17.3652 2.78259 17.0918 3.40759 16.7969 4.02344C16.5853 4.30502 16.3119 4.50034 15.9766 4.60938C13.7397 4.73564 11.5002 4.76168 9.25781 4.6875C8.6968 4.63484 8.24102 4.38744 7.89063 3.94531C7.58891 3.3392 7.34151 2.7142 7.14844 2.07031C6.49688 2.05731 5.84584 2.07034 5.19531 2.10938C4.2095 2.31384 3.57149 2.89977 3.28125 3.86719C3.20364 14.7038 3.22968 25.5372 3.35938 36.3672C3.72167 37.1728 4.33364 37.6545 5.19531 37.8125C10.068 37.8891 14.9377 37.8631 19.8047 37.7344C20.4963 37.4995 20.9781 37.0438 21.25 36.3672C21.3513 34.8618 21.4034 33.3514 21.4063 31.8359C21.5695 31.3834 21.8691 31.2663 22.3047 31.4844C22.3985 31.5549 22.4637 31.646 22.5 31.7578C22.5521 33.1641 22.5521 34.5703 22.5 35.9766C22.2096 37.5951 21.2591 38.5716 19.6484 38.9062C14.7526 38.9584 9.8568 38.9584 4.96094 38.9062C3.27831 38.5518 2.32779 37.5232 2.10938 35.8203C2.05729 25.2474 2.05729 14.6745 2.10938 4.10156C2.34229 2.39759 3.29281 1.35592 4.96094 0.976564ZM8.32031 2.14844C10.9893 2.07045 13.6716 2.0444 16.3672 2.07031C16.2467 2.61063 16.0123 3.09241 15.6641 3.51563C13.4766 3.56771 11.2891 3.56771 9.10156 3.51563C9.03 3.48639 8.96485 3.44733 8.90625 3.39844C8.7168 2.97043 8.52149 2.55377 8.32031 2.14844Z" fill="white"/>
<path opacity="0.919" fill-rule="evenodd" clip-rule="evenodd" d="M20.6643 4.96094C22.025 5.21912 23.3531 5.59672 24.6487 6.09375C24.941 6.44664 25.0322 6.85029 24.9221 7.30469C24.6083 8.41523 24.2567 9.50898 23.8674 10.5859C23.5838 10.8671 23.2453 10.9843 22.8518 10.9375C21.664 10.6197 20.4921 10.2551 19.3362 9.84375C19.0438 9.49086 18.9527 9.08719 19.0627 8.63281C19.3752 7.59115 19.6877 6.54948 20.0002 5.50781C20.1734 5.25959 20.3948 5.07729 20.6643 4.96094ZM20.9768 6.13281C21.9098 6.4091 22.8473 6.66952 23.7893 6.91406C23.5809 7.90359 23.2945 8.86719 22.9299 9.80469C22.0266 9.51219 21.1152 9.2518 20.1955 9.02344C20.4191 8.05086 20.6796 7.08735 20.9768 6.13281Z" fill="white"/>
<path opacity="0.917" fill-rule="evenodd" clip-rule="evenodd" d="M13.008 7.61719C15.2969 7.67932 16.3776 8.85117 16.2502 11.1328C15.7355 12.8038 14.6027 13.5459 12.8518 13.3594C11.5115 13.0346 10.7432 12.1882 10.5471 10.8203C10.5311 9.10508 11.3514 8.03734 13.008 7.61719ZM12.9299 8.78906C14.2272 8.65461 14.9824 9.22758 15.1955 10.5078C15.0927 11.6002 14.4937 12.1992 13.3987 12.3047C12.041 12.0364 11.5072 11.2291 11.7971 9.88281C12.0138 9.34039 12.3914 8.97578 12.9299 8.78906Z" fill="white"/>
<path opacity="0.925" fill-rule="evenodd" clip-rule="evenodd" d="M30.4292 8.00793C31.4282 7.92597 31.91 8.39472 31.8745 9.41418C32.1887 9.58425 32.4752 9.79261 32.7339 10.0392C32.9033 10.4421 32.8773 10.8327 32.6558 11.2111C32.3473 11.3975 32.0479 11.5928 31.7573 11.797C31.6727 12.8925 31.1259 13.2571 30.1167 12.8907C29.9344 12.7085 29.7521 12.5261 29.5698 12.3439C27.9491 12.5014 27.5323 11.8634 28.3198 10.4298C27.9598 9.90293 27.9207 9.35605 28.2027 8.78918C28.4031 8.61496 28.6375 8.51074 28.9058 8.47668C29.178 8.55472 29.4515 8.59379 29.7261 8.59386C29.9753 8.40918 30.2097 8.21386 30.4292 8.00793ZM30.5855 9.33605C30.663 9.89824 30.9755 10.3019 31.523 10.547C30.9667 10.7254 30.6542 11.103 30.5855 11.6798C30.2134 11.2643 29.7447 11.0951 29.1792 11.172C29.5451 10.7366 29.5711 10.2809 29.2573 9.8048C29.5709 9.83144 29.8834 9.79238 30.1948 9.68761C30.3636 9.6098 30.4938 9.49261 30.5855 9.33605Z" fill="white"/>
<path opacity="0.931" fill-rule="evenodd" clip-rule="evenodd" d="M21.7578 11.6798C22.0847 11.6176 22.3321 11.7217 22.5 11.9923C22.5521 13.7632 22.5521 15.5339 22.5 17.3048C22.3037 17.5948 22.0303 17.6859 21.6797 17.5782C21.6146 17.5132 21.5495 17.448 21.4844 17.3829C21.4323 15.586 21.4323 13.7892 21.4844 11.9923C21.5383 11.8478 21.6294 11.7435 21.7578 11.6798Z" fill="white"/>
<path opacity="0.898" fill-rule="evenodd" clip-rule="evenodd" d="M16.3673 12.7734C16.5 12.7609 16.6303 12.7739 16.7579 12.8125C18.1726 13.8651 19.006 15.2714 19.2579 17.0312C19.1977 17.5441 18.9112 17.7264 18.3985 17.5781C18.3335 17.513 18.2683 17.4479 18.2032 17.3828C18.1141 16.5685 17.8537 15.8133 17.422 15.1171C17.0066 14.5457 16.5378 14.0248 16.0157 13.5546C15.9436 13.2044 16.0608 12.9439 16.3673 12.7734Z" fill="white"/>
<path opacity="0.9" fill-rule="evenodd" clip-rule="evenodd" d="M26.8359 12.7734C27.4515 12.7512 27.6728 13.0377 27.5 13.6328C26.2648 14.6188 25.5356 15.8948 25.3125 17.4609C24.7045 17.7971 24.3791 17.6279 24.3359 16.9531C24.5809 15.1988 25.4143 13.8056 26.8359 12.7734Z" fill="white"/>
<path opacity="0.922" fill-rule="evenodd" clip-rule="evenodd" d="M16.8362 18.6328C20.2477 18.6198 23.6592 18.6328 27.0706 18.6719C27.5583 18.7466 28.001 18.9288 28.3987 19.2188C31.171 22.2757 33.033 25.8304 33.9846 29.8828C34.2692 30.9613 34.2432 32.0291 33.9065 33.0859C32.9604 34.7559 31.5671 35.2897 29.7268 34.6875C28.1179 33.6516 26.8288 32.3104 25.8596 30.6641C25.6956 30.4323 25.4741 30.2891 25.1956 30.2344C23.0602 30.1823 20.9247 30.1823 18.7893 30.2344C18.4775 30.2666 18.2301 30.4099 18.0471 30.6641C17.0483 32.366 15.7071 33.7332 14.0237 34.7656C12.0122 35.2378 10.619 34.5217 9.84399 32.6172C9.66806 31.5915 9.72017 30.5759 10.0002 29.5703C11.0031 25.7017 12.8131 22.2773 15.4299 19.2969C15.8558 18.9666 16.3245 18.7452 16.8362 18.6328ZM17.1487 19.7266C20.3519 19.7135 23.555 19.7266 26.7581 19.7656C27.033 19.7965 27.2934 19.8746 27.5393 20C30.3993 23.1273 32.2352 26.7861 33.0471 30.9766C33.2588 32.3119 32.751 33.2363 31.5237 33.75C30.7109 33.9044 30.0077 33.696 29.4143 33.125C28.3427 32.1324 27.4183 31.0256 26.6409 29.8047C26.3004 29.4717 25.8967 29.2502 25.4299 29.1406C24.2711 29.1276 23.1122 29.1146 21.9534 29.1016C20.6864 29.0909 19.4234 29.1299 18.1643 29.2188C17.8227 29.3526 17.5231 29.5479 17.2659 29.8047C16.3846 31.2853 15.2518 32.5484 13.8674 33.5938C12.6008 34.0745 11.6502 33.723 11.0159 32.5391C10.913 32.195 10.8478 31.8434 10.8206 31.4844C11.5366 27.1359 13.3596 23.3339 16.2893 20.0781C16.5611 19.9056 16.8476 19.7884 17.1487 19.7266Z" fill="white"/>
<path opacity="0.933" fill-rule="evenodd" clip-rule="evenodd" d="M24.9609 23.4766C24.929 21.8126 25.7102 21.2266 27.3047 21.7188C27.8855 22.2015 28.1069 22.8136 27.9688 23.5548C29.1299 23.3342 29.794 23.816 29.9609 25.0001C29.7508 26.1344 29.0737 26.6162 27.9297 26.4454C28.1005 27.5894 27.6187 28.2665 26.4844 28.4766C25.3107 28.3049 24.8029 27.6279 24.9609 26.4454C23.8086 26.6336 23.1575 26.1518 23.0078 25.0001C23.1187 23.8227 23.7698 23.3149 24.9609 23.4766ZM26.2891 22.6173C25.9127 23.1275 26.0429 23.3749 26.6797 23.3594C26.9537 22.9049 26.8235 22.6576 26.2891 22.6173ZM26.9141 25.4298C26.9141 25.1173 26.9141 24.8048 26.9141 24.4923C26.6026 24.5864 26.2901 24.5864 25.9766 24.4923C26.0807 24.8048 26.0807 25.1173 25.9766 25.4298C26.2891 25.4298 26.6016 25.4298 26.9141 25.4298ZM24.3359 24.5704C23.9596 25.0806 24.0898 25.328 24.7266 25.3126C25.0005 24.858 24.8704 24.6107 24.3359 24.5704ZM28.2422 24.5704C27.8659 25.0806 27.996 25.328 28.6328 25.3126C28.9068 24.858 28.7766 24.6107 28.2422 24.5704ZM26.2891 26.5235C25.9127 27.0337 26.0429 27.2812 26.6797 27.2657C26.9537 26.8112 26.8235 26.5638 26.2891 26.5235Z" fill="white"/>
<path opacity="0.93" fill-rule="evenodd" clip-rule="evenodd" d="M16.3675 21.8359C17.2049 21.8117 18.0382 21.8377 18.8675 21.914C18.9522 22.005 19.0172 22.1092 19.0628 22.2265C19.1018 22.6163 19.1148 23.0069 19.1019 23.3984C19.5801 23.3664 20.0488 23.4054 20.5081 23.5156C20.557 23.5742 20.5961 23.6393 20.6253 23.7109C20.6774 24.4922 20.6774 25.2734 20.6253 26.0547C20.5961 26.1262 20.557 26.1914 20.5081 26.25C20.0488 26.3601 19.5801 26.3992 19.1019 26.3672C19.1301 26.8432 19.091 27.3119 18.9847 27.7734C18.8682 27.8909 18.725 27.956 18.555 27.9687C17.904 28.0208 17.2529 28.0208 16.6019 27.9687C16.4184 27.9417 16.2752 27.8505 16.1722 27.6953C16.1332 27.2533 16.1201 26.8106 16.1331 26.3672C14.8112 26.7116 14.2644 26.2168 14.4925 24.8828C14.2599 23.5533 14.8068 23.0586 16.1331 23.3984C16.1201 22.955 16.1332 22.5122 16.1722 22.0703C16.2538 22.0021 16.3189 21.924 16.3675 21.8359ZM17.2269 22.9297C17.2398 23.3472 17.2268 23.7638 17.1878 24.1797C17.1515 24.2915 17.0863 24.3825 16.9925 24.4531C16.5505 24.4921 16.1078 24.5051 15.6644 24.4922C15.6644 24.7525 15.6644 25.013 15.6644 25.2734C16.0819 25.2604 16.4985 25.2735 16.9144 25.3125C16.9859 25.3417 17.0511 25.3807 17.1097 25.4297C17.2198 25.889 17.2589 26.3577 17.2269 26.8359C17.4612 26.8359 17.6956 26.8359 17.93 26.8359C17.6618 25.4636 18.2087 24.9427 19.5706 25.2734C19.5706 25.013 19.5706 24.7525 19.5706 24.4922C19.0971 24.5148 18.6283 24.4888 18.1644 24.414C18.0797 24.323 18.0146 24.2189 17.969 24.1015C17.9301 23.7118 17.917 23.3211 17.93 22.9297C17.6956 22.9297 17.4612 22.9297 17.2269 22.9297Z" fill="white"/>
<path opacity="0.943" fill-rule="evenodd" clip-rule="evenodd" d="M7.30458 35.7422C10.664 35.7292 14.0234 35.7422 17.3827 35.7813C17.7974 36.1273 17.7974 36.4659 17.3827 36.7969C13.9973 36.849 10.6118 36.849 7.22645 36.7969C6.80363 36.4209 6.82967 36.0693 7.30458 35.7422Z" fill="white"/>
</svg>
