<svg width="16" height="17" viewBox="0 0 16 17" fill="none" xmlns="http://www.w3.org/2000/svg">
<path d="M14.6302 2.4511C14.3373 2.20822 13.9348 2.14572 13.582 2.28834L1.63736 7.1106C1.11193 7.32687 0.86132 7.92815 1.07759 8.45354C1.18944 8.72527 1.4121 8.93616 1.68944 9.03313L4.26627 9.92896L5.66275 14.5461C5.66556 14.5555 5.67419 14.5613 5.67781 14.5703C5.69225 14.6071 5.71337 14.641 5.74002 14.6703C5.74995 14.682 5.76077 14.693 5.77233 14.7032C5.80712 14.7321 5.84753 14.7535 5.89098 14.7659C5.89762 14.7679 5.90205 14.7738 5.90881 14.7753L5.91271 14.7752L5.91466 14.776C5.93692 14.7809 5.95963 14.7833 5.98237 14.7831C6.01212 14.7821 6.04162 14.7769 6.06994 14.7679C6.07543 14.7664 6.08097 14.7668 6.08634 14.765C6.13472 14.7479 6.17842 14.7199 6.21402 14.683C6.21817 14.6789 6.22448 14.6781 6.22847 14.6738L8.23758 12.457L11.1686 14.7265C11.3467 14.8657 11.5662 14.9414 11.7923 14.9413C12.2812 14.9412 12.7032 14.5988 12.804 14.1204L14.9792 3.44198C15.0545 3.0726 14.9204 2.69174 14.6302 2.4511ZM6.39192 10.8046L5.92044 13.0958L4.93721 9.84392L9.81379 7.30457L6.48241 10.636C6.43635 10.6821 6.4049 10.7407 6.39192 10.8046ZM12.151 13.9863C12.1255 14.109 12.0379 14.2096 11.9199 14.2519C11.8046 14.2962 11.6744 14.2765 11.5775 14.1998L8.40168 11.7408C8.26419 11.6344 8.06794 11.6517 7.95116 11.7805L6.55407 13.322L7.02473 11.037L11.817 6.24406C11.9473 6.11406 11.9475 5.90312 11.8175 5.77291C11.7147 5.66985 11.5568 5.64551 11.4277 5.71282L4.51883 9.31059L1.90754 8.40292C1.76521 8.35609 1.66841 8.22396 1.66666 8.07414C1.65978 7.92326 1.7491 7.78455 1.88931 7.72844L13.832 2.90683C13.9568 2.85389 14.1007 2.87606 14.2038 2.96412C14.3063 3.04688 14.3534 3.18039 14.3255 3.30917L12.151 13.9863Z" fill="white"/>
</svg>
