<svg width="16" height="17" viewBox="0 0 16 17" fill="none" xmlns="http://www.w3.org/2000/svg">
<g clip-path="url(#clip0_848_305)">
<path opacity="0.928" fill-rule="evenodd" clip-rule="evenodd" d="M2.57812 0.0927734C2.77604 0.0927734 2.97396 0.0927734 3.17188 0.0927734C3.35819 0.142996 3.53525 0.221121 3.70312 0.327148C4.53909 1.21341 5.35678 2.11445 6.15625 3.03027C6.55203 3.62346 6.55203 4.21721 6.15625 4.81152C5.85272 5.16709 5.56103 5.53168 5.28125 5.90527C5.11528 6.2568 5.14653 6.59015 5.375 6.90527C6.14087 8.11924 7.094 9.16612 8.23438 10.0459C8.51562 10.2438 8.79688 10.4417 9.07812 10.6396C9.23072 10.7504 9.39738 10.8337 9.57812 10.8896C9.78684 10.9256 9.98475 10.8944 10.1719 10.7959C10.5455 10.5161 10.9101 10.2244 11.2656 9.9209C11.8599 9.52512 12.4537 9.52512 13.0469 9.9209C13.9627 10.7204 14.8638 11.5381 15.75 12.374C15.856 12.5419 15.9342 12.719 15.9844 12.9053C15.9844 13.1032 15.9844 13.3011 15.9844 13.499C15.92 13.7111 15.821 13.9091 15.6875 14.0928C15.204 14.545 14.7301 15.0085 14.2656 15.4834C13.8697 15.8065 13.4218 16.0096 12.9219 16.0928C12.599 16.0928 12.276 16.0928 11.9531 16.0928C10.7477 15.8627 9.62266 15.42 8.57812 14.7646C5.61459 12.8844 3.19272 10.4626 1.3125 7.49902C0.797897 6.65718 0.402066 5.76134 0.125 4.81152C0.0742181 4.5788 0.0273431 4.34965 -0.015625 4.12402C-0.015625 3.80112 -0.015625 3.47818 -0.015625 3.15527C0.0675769 2.65536 0.270702 2.20744 0.59375 1.81152C1.06862 1.34709 1.53216 0.87313 1.98438 0.389648C2.16808 0.25613 2.36599 0.157172 2.57812 0.0927734ZM2.64062 0.624023C2.92541 0.581902 3.18584 0.639195 3.42188 0.795898C4.17709 1.63444 4.93228 2.47298 5.6875 3.31152C6 3.71777 6 4.12402 5.6875 4.53027C5.39434 4.87543 5.11309 5.22962 4.84375 5.59277C4.56559 6.10849 4.57603 6.61893 4.875 7.12402C5.9815 8.90762 7.44503 10.3191 9.26562 11.3584C9.69034 11.4919 10.0966 11.4502 10.4844 11.2334C10.8475 10.9641 11.2017 10.6828 11.5469 10.3896C11.9531 10.0771 12.3594 10.0771 12.7656 10.3896C13.6042 11.1449 14.4427 11.9001 15.2812 12.6553C15.4711 12.9507 15.5024 13.2632 15.375 13.5928C14.8819 14.1276 14.3663 14.6432 13.8281 15.1396C13.2079 15.5571 12.5308 15.6821 11.7969 15.5146C10.7818 15.2936 9.83394 14.9081 8.95312 14.3584C6.05494 12.5227 3.67472 10.1633 1.8125 7.28027C1.30851 6.48055 0.923097 5.6264 0.65625 4.71777C0.484481 4.12674 0.46365 3.53299 0.59375 2.93652C0.643294 2.73333 0.726625 2.54583 0.84375 2.37402C1.31668 1.84897 1.80105 1.33335 2.29688 0.827148C2.40925 0.750255 2.52383 0.682545 2.64062 0.624023Z" fill="white"/>
<path opacity="0.928" fill-rule="evenodd" clip-rule="evenodd" d="M1.54691 2.46767C1.83307 2.43608 1.95286 2.56108 1.90629 2.84267C1.71018 3.05872 1.61122 3.31392 1.60941 3.60829C1.69276 4.40004 1.92714 5.14483 2.31254 5.84267C2.36967 6.17104 2.23946 6.29083 1.92191 6.20204C1.52103 5.54129 1.25541 4.82776 1.12504 4.06142C1.05331 3.62223 1.10539 3.19516 1.28129 2.78017C1.3633 2.66671 1.45184 2.56254 1.54691 2.46767Z" fill="white"/>
</g>
<defs>
<clipPath id="clip0_848_305">
<rect width="16" height="16" fill="white" transform="translate(0 0.108398)"/>
</clipPath>
</defs>
</svg>
