<svg width="16" height="17" viewBox="0 0 16 17" fill="none" xmlns="http://www.w3.org/2000/svg">
<path fill-rule="evenodd" clip-rule="evenodd" d="M8.25 2.3584C8.1837 2.3584 8.12011 2.38474 8.07322 2.43162C8.02634 2.47851 8 2.54209 8 2.6084V11.1084C8 11.7984 7.44 12.3584 6.75 12.3584C6.06 12.3584 5.5 11.7984 5.5 11.1084C5.5 10.4184 6.06 9.8584 6.75 9.8584C6.8163 9.8584 6.87989 9.83206 6.92678 9.78518C6.97366 9.73829 7 9.6747 7 9.6084V7.6084C7 7.54209 6.97366 7.47851 6.92678 7.43162C6.87989 7.38474 6.8163 7.3584 6.75 7.3584C4.68 7.3584 3 9.03865 3 11.1084C3 13.1784 4.68 14.8584 6.75 14.8584C8.81975 14.8584 10.5 13.1784 10.5 11.1084V6.9819C11.0498 7.23075 11.6465 7.35912 12.25 7.3584H12.75C12.8163 7.3584 12.8799 7.33206 12.9268 7.28518C12.9737 7.23829 13 7.1747 13 7.1084V5.1084C13 5.04209 12.9737 4.97851 12.9268 4.93162C12.8799 4.88474 12.8163 4.8584 12.75 4.8584H12.25C11.2843 4.8584 10.5 4.07415 10.5 3.1084V2.6084C10.5 2.54209 10.4737 2.47851 10.4268 2.43162C10.3799 2.38474 10.3163 2.3584 10.25 2.3584H8.25ZM8.5 2.8584H10V3.1084C10 4.35015 11.0083 5.3584 12.25 5.3584H12.5V6.8584H12.25C11.5673 6.8584 10.927 6.6759 10.3752 6.35615C10.3372 6.33414 10.2941 6.32254 10.2502 6.32251C10.2063 6.32248 10.1631 6.33402 10.1251 6.35597C10.087 6.37791 10.0554 6.4095 10.0335 6.44754C10.0115 6.48558 9.99998 6.52873 10 6.57265V11.1084C10 12.9021 8.54375 14.3584 6.75 14.3584C4.95625 14.3584 3.5 12.9021 3.5 11.1084C3.5 9.3989 4.823 7.9959 6.5 7.8679V9.37615C5.6525 9.49765 5 10.2274 5 11.1086C5 12.0741 5.78425 12.8586 6.75 12.8586C7.71575 12.8586 8.5 12.0741 8.5 11.1086V2.8584Z" fill="white"/>
</svg>
